<?xml version="1.0" standalone="no"?>
<!DOCTYPE svg PUBLIC "-//W3C//DTD SVG 20010904//EN"
 "http://www.w3.org/TR/2001/REC-SVG-20010904/DTD/svg10.dtd">
<svg version="1.0" xmlns="http://www.w3.org/2000/svg"
 width="906.000000pt" height="906.000000pt" viewBox="0 0 906.000000 906.000000"
 preserveAspectRatio="xMidYMid meet">
<metadata>
Created by potrace 1.14, written by Peter Selinger 2001-2017
</metadata>
<g transform="translate(0.000000,906.000000) scale(0.100000,-0.100000)"
fill="#000000" stroke="none">
<path d="M3800 8597 c-3 -2 -25 -7 -50 -10 -122 -16 -207 -67 -267 -162 -28
-46 -52 -60 -112 -70 -19 -3 -38 -8 -43 -11 -5 -3 -20 -7 -33 -8 -29 -4 -107
-49 -137 -80 -41 -42 -93 -101 -115 -133 -26 -37 -33 -62 -36 -130 -2 -29 -5
-55 -9 -58 -3 -3 -29 -8 -57 -11 -66 -6 -146 -47 -193 -98 -36 -38 -68 -109
-68 -146 0 -10 -15 -28 -34 -41 -19 -13 -32 -27 -30 -31 3 -4 0 -8 -6 -8 -19
0 -60 -52 -60 -76 0 -34 -10 -54 -29 -54 -78 -2 -198 -87 -241 -170 -22 -42
-33 -127 -18 -136 4 -3 8 -14 8 -25 0 -10 5 -27 11 -37 9 -14 5 -28 -21 -69
-18 -28 -33 -63 -34 -77 -1 -25 -3 -26 -61 -25 -33 0 -69 -2 -80 -4 -49 -12
-131 -48 -186 -84 -47 -30 -65 -50 -89 -97 -29 -57 -32 -74 -29 -171 2 -54 -1
-61 -23 -62 -68 -3 -149 -51 -194 -115 -26 -37 -31 -54 -33 -113 -1 -39 -5
-73 -9 -77 -4 -4 -25 -3 -47 3 -64 15 -88 20 -121 23 -42 5 -147 -13 -155 -25
-3 -6 -8 -10 -10 -8 -9 5 -57 -15 -87 -38 -37 -28 -105 -117 -109 -142 -10
-71 0 -163 23 -198 8 -12 14 -24 14 -26 0 -1 -51 -3 -112 -2 -119 0 -150 -7
-223 -54 -76 -48 -155 -165 -159 -235 -1 -25 -7 -31 -47 -42 -26 -8 -62 -30
-87 -53 -52 -50 -113 -162 -118 -219 -2 -23 -6 -47 -9 -52 -3 -4 -1 -10 5 -12
5 -1 11 -13 13 -25 1 -11 8 -27 15 -35 9 -12 6 -20 -19 -44 -45 -42 -79 -119
-79 -179 0 -57 16 -125 30 -125 6 0 10 -6 10 -13 0 -7 -25 -25 -56 -41 -73
-35 -119 -70 -143 -110 -26 -41 -21 -118 10 -170 l22 -38 -20 -17 c-52 -41
-74 -142 -47 -211 18 -48 73 -112 114 -135 100 -54 168 -70 295 -69 90 0 152
17 243 63 50 25 56 26 77 5 9 -9 36 -19 60 -22 36 -4 48 -11 66 -37 20 -28 52
-47 109 -63 33 -10 138 -5 180 8 44 12 48 12 85 -13 22 -14 60 -29 85 -33 55
-9 211 -12 225 -5 6 3 19 7 30 8 11 2 32 12 48 24 18 13 33 17 45 12 21 -10
53 -10 70 0 6 5 16 6 21 2 5 -3 28 2 51 11 35 14 47 15 80 4 23 -8 64 -11 104
-8 64 5 67 4 86 -23 23 -31 86 -59 145 -62 47 -4 140 16 161 34 11 9 18 9 22
2 10 -15 83 -34 112 -28 68 13 87 19 111 36 14 10 28 17 30 14 3 -2 17 -6 33
-9 15 -3 34 -10 41 -16 8 -7 34 -9 67 -6 91 10 112 16 153 44 33 23 46 27 70
20 17 -5 61 -8 98 -7 57 2 76 7 112 31 24 16 46 35 49 43 3 9 18 15 36 15 17
0 39 4 49 10 13 7 41 0 107 -27 73 -30 99 -47 144 -93 30 -32 71 -88 90 -126
19 -38 57 -98 83 -133 l48 -64 1 -91 c0 -84 -7 -161 -19 -211 -2 -11 -5 -27
-5 -35 0 -14 -23 -106 -36 -140 -3 -8 -6 -22 -8 -30 -2 -8 -31 -96 -64 -195
-34 -99 -62 -186 -62 -192 -1 -7 -5 -13 -10 -13 -4 0 -8 -11 -8 -24 0 -13 -7
-29 -15 -36 -9 -7 -13 -15 -11 -18 8 -7 -99 -212 -148 -285 -73 -110 -156
-195 -258 -263 -65 -44 -206 -114 -228 -114 -6 0 -28 -9 -48 -19 -49 -25 -168
-56 -252 -66 -23 -3 -68 -7 -190 -20 -25 -2 -76 -7 -113 -10 -38 -3 -85 -12
-105 -21 -20 -9 -43 -17 -50 -18 -49 -9 -282 -213 -282 -247 0 -6 -4 -7 -10
-4 -5 3 -10 1 -10 -6 0 -20 -85 -94 -131 -114 -24 -11 -47 -23 -50 -28 -3 -5
-9 -8 -13 -8 -13 1 -211 -74 -260 -98 -37 -19 -178 -159 -262 -260 -73 -88
-70 -130 8 -133 33 -1 103 17 123 32 44 34 225 115 280 126 57 11 66 13 75 19
14 9 12 -5 -5 -35 -21 -36 -18 -83 5 -108 32 -34 66 -32 125 8 22 15 42 28 45
28 18 4 122 43 146 55 30 15 145 99 175 127 9 8 44 41 77 73 34 32 74 62 89
68 14 5 84 10 155 10 71 1 143 5 159 9 16 5 29 6 29 2 0 -7 -26 -39 -81 -99
-16 -18 -29 -37 -29 -43 0 -5 -4 -10 -8 -10 -12 0 -90 -140 -96 -172 -2 -15
-7 -31 -9 -35 -3 -5 -8 -25 -11 -46 -3 -21 -13 -50 -23 -65 -58 -95 -78 -122
-165 -215 -37 -41 -41 -64 -17 -94 15 -17 62 -13 129 11 96 34 138 64 242 168
129 130 238 203 316 213 162 22 247 48 345 106 38 23 85 42 105 44 92 9 249
63 372 129 48 25 67 29 155 32 268 9 570 4 705 -12 25 -2 95 -7 155 -10 167
-8 206 -11 255 -18 64 -10 73 -11 95 -19 69 -22 257 -31 340 -17 84 15 109 21
130 27 11 4 23 8 28 9 4 1 8 2 10 4 1 1 9 3 17 5 8 1 33 7 55 13 22 6 76 14
120 18 44 3 89 8 100 10 11 2 43 6 70 9 28 3 63 8 79 11 120 21 214 21 266 0
22 -9 40 -13 40 -10 0 4 6 2 13 -4 6 -6 15 -11 19 -11 8 -2 9 -2 73 -22 22 -7
45 -14 50 -15 28 -7 54 -12 95 -19 86 -13 95 -15 130 -25 83 -24 130 -3 130
59 0 38 -21 74 -69 119 -154 145 -166 159 -202 232 -31 63 -54 87 -124 125
-27 15 -63 39 -80 55 -49 45 -187 107 -245 108 -8 1 -33 3 -55 7 -79 12 -196
6 -380 -20 -139 -19 -158 -18 -206 13 -25 16 -75 63 -109 103 -35 41 -81 90
-103 111 -22 20 -36 41 -33 47 4 6 2 11 -4 11 -6 0 -8 5 -5 10 4 6 9 142 11
303 8 476 3 432 58 519 58 94 85 169 90 251 4 81 22 144 52 184 54 72 176 189
294 283 24 19 52 43 62 53 10 9 20 17 23 17 3 0 33 22 65 49 33 27 65 54 72
60 40 32 138 123 179 166 l48 50 88 1 c104 2 125 6 160 34 18 14 35 19 52 15
14 -3 36 -7 49 -10 13 -2 38 -18 55 -35 41 -40 59 -44 207 -44 123 0 126 0
177 32 28 18 54 39 57 48 4 11 11 12 23 6 42 -22 193 -6 193 20 0 4 7 8 15 8
8 0 15 7 15 16 0 13 7 15 38 10 63 -11 136 -12 149 -4 6 5 14 5 17 0 13 -21
71 -4 202 59 102 50 128 57 139 39 3 -5 17 -10 31 -10 14 0 34 -5 45 -11 14
-7 29 -7 52 0 27 9 39 8 71 -9 80 -40 181 -32 256 20 18 13 42 18 80 16 74 -2
175 32 206 70 6 7 34 14 65 15 41 1 74 12 134 42 44 23 82 43 85 47 3 3 27 24
55 45 27 22 58 49 67 60 38 43 51 132 36 240 -5 35 -49 101 -78 118 -20 12
-29 27 -34 59 -5 28 -17 51 -39 72 -30 29 -44 56 -27 56 4 0 13 14 20 31 18
41 -7 96 -50 111 -27 9 -43 38 -21 38 5 0 15 17 21 38 6 20 14 44 17 52 8 18
7 17 18 60 13 55 12 81 -3 140 -14 58 -51 120 -92 158 -76 69 -128 88 -232 87
-32 0 -58 2 -59 5 -4 29 -10 43 -28 68 -28 40 -41 49 -78 55 -52 8 -56 14 -49
75 8 69 -16 112 -81 149 -16 9 -91 26 -127 28 -5 0 -10 23 -11 50 -3 57 -22
135 -34 135 -4 0 -13 11 -19 25 -7 14 -22 30 -35 36 -20 9 -23 18 -23 67 -1
117 -13 152 -76 214 -44 43 -48 50 -42 84 11 68 -47 167 -107 186 -37 10 -73
38 -52 38 26 0 56 167 40 225 -19 73 -44 126 -78 166 -22 26 -39 52 -39 58 0
6 -3 11 -7 11 -5 0 -18 15 -30 33 -21 30 -83 76 -83 61 0 -3 -6 -2 -12 3 -12
9 -42 19 -88 29 -8 2 -58 5 -112 6 -80 1 -101 -2 -125 -18 -39 -26 -75 -45
-79 -41 -2 2 -5 28 -8 59 -2 31 -14 77 -27 102 -26 52 -117 144 -169 171 -19
9 -41 22 -49 28 -14 12 -72 35 -106 42 -11 3 -32 7 -46 10 -56 12 -169 13
-232 1 -37 -7 -69 -11 -71 -8 -5 4 -87 -38 -96 -50 -3 -4 -17 -12 -30 -17 -14
-6 -33 -16 -42 -23 -14 -10 -20 -10 -30 4 -27 34 -105 65 -154 62 -26 -2 -50
-6 -52 -9 -3 -3 -25 13 -49 35 -39 37 -77 58 -110 64 -7 1 -15 4 -18 7 -10 11
-137 -1 -193 -17 -30 -9 -79 -30 -106 -47 -54 -33 -139 -97 -144 -109 -6 -12
-17 -9 -38 10 -10 10 -38 29 -61 42 -45 25 -73 71 -55 93 15 19 20 78 10 114
-11 39 -127 166 -167 183 -29 12 -67 10 -88 -3 -9 -5 -13 -3 -13 8 0 25 -101
120 -153 144 -66 30 -129 33 -209 11 -38 -10 -68 -16 -68 -13 0 3 -7 0 -15 -7
-13 -11 -22 -8 -53 21 -20 19 -39 38 -43 42 -3 5 -28 18 -55 31 -56 25 -166
29 -208 7 -23 -13 -28 -11 -72 28 -32 28 -67 47 -113 61 -68 20 -172 36 -181
27z m1250 -4286 c0 -14 -112 -126 -190 -192 -36 -29 -67 -56 -70 -59 -3 -3
-33 -26 -67 -52 -34 -25 -60 -48 -57 -51 2 -2 -10 -10 -28 -18 -132 -55 -336
74 -444 281 -13 24 -13 25 49 43 68 21 75 21 162 12 33 -3 86 -2 118 3 55 9
62 7 113 -20 50 -27 62 -30 151 -29 76 1 105 5 140 22 24 11 43 26 43 33 0 14
36 34 63 35 9 1 17 -3 17 -8z m863 -136 l28 -18 -28 -19 c-15 -11 -37 -23 -48
-29 -22 -10 -57 -31 -65 -39 -15 -15 -93 -51 -84 -39 6 8 26 34 45 59 19 25
37 47 42 48 4 2 7 9 7 15 0 20 31 45 54 43 12 -2 34 -11 49 -21z"/>
</g>
</svg>
